<?xml version="1.0" encoding="UTF-8" standalone="no"?>
<!-- Created with Inkscape (http://www.inkscape.org/) -->

<svg
   version="1.1"
   id="svg1"
   width="602.09808"
   height="1009.6616"
   viewBox="0 0 602.09808 1009.6615"
   sodipodi:docname="man18b.svg"
   inkscape:version="1.3.2 (091e20ef0f, 2023-11-25)"
   xmlns:inkscape="http://www.inkscape.org/namespaces/inkscape"
   xmlns:sodipodi="http://sodipodi.sourceforge.net/DTD/sodipodi-0.dtd"
   xmlns="http://www.w3.org/2000/svg"
   xmlns:svg="http://www.w3.org/2000/svg">
  <defs
     id="defs1" />
  <sodipodi:namedview
     id="namedview1"
     pagecolor="#ffffff"
     bordercolor="#000000"
     borderopacity="0.25"
     inkscape:showpageshadow="2"
     inkscape:pageopacity="0.0"
     inkscape:pagecheckerboard="0"
     inkscape:deskcolor="#d1d1d1"
     showgrid="false"
     inkscape:zoom="0.77205876"
     inkscape:cx="275.88574"
     inkscape:cy="498.01909"
     inkscape:window-width="1920"
     inkscape:window-height="1011"
     inkscape:window-x="0"
     inkscape:window-y="0"
     inkscape:window-maximized="1"
     inkscape:current-layer="layer1" />
  <g
     inkscape:groupmode="layer"
     id="layer1"
     inkscape:label="Layer 1"
     transform="translate(-73.56409,-23.014515)">
    <path
       id="path1"
       style="fill:#000000"
       d="M 317.46643 23.121937 C 316.34281 23.300902 315.26499 23.70268 314.32386 24.313343 C 312.6792 25.380492 308.86784 26.576863 305.85511 26.973499 C 296.85408 28.158508 290.6693 31.881697 286.58362 38.571156 C 284.53582 41.923994 281.70453 46.167511 280.29065 48.000843 C 278.87678 49.834174 276.73839 53.240386 275.54065 55.571156 C 274.3429 57.901925 269.29861 64.201932 264.32971 69.571156 C 259.36081 74.940379 253.86966 81.344851 252.12659 83.803578 C 250.38353 86.262303 245.89054 90.280366 242.14417 92.733265 C 238.39779 95.186164 231.44274 100.74391 226.68714 105.08287 C 216.34521 114.51874 215.91131 113.45115 235.56018 126.94811 C 243.13542 132.15159 249.33362 136.82273 249.33362 137.32897 C 249.33362 139.47694 243.77706 154.15941 241.5094 158.0028 C 234.58745 169.73463 232.18323 187.34545 236.58753 194.06725 C 238.81736 197.4704 239.17911 197.5517 248.0094 196.66491 L 257.12659 195.75084 L 258.27307 201.54186 C 259.72735 208.88536 258.59705 217.42175 255.99964 218.70787 C 254.89964 219.25254 250.7215 221.11548 246.71448 222.8485 C 219.20758 234.74518 193.36138 263.20763 181.9137 294.20592 C 176.85561 307.90233 172.77704 320.37689 168.03284 336.66686 C 165.68355 344.73352 162.61558 354.78516 161.21448 359.00475 C 159.81339 363.22433 158.66761 367.70393 158.66761 368.95983 C 158.66761 370.97376 156.49942 377.91094 153.34339 386.00084 C 152.77122 387.46751 151.57749 391.36686 150.68909 394.66686 C 149.8007 397.96686 148.62408 401.56686 148.07581 402.66686 C 147.52754 403.76686 145.71537 409.16686 144.04846 414.66686 C 137.40076 436.60106 121.41611 463.86414 110.82386 471.33287 C 108.74382 472.79954 105.33258 475.2002 103.24378 476.66686 C 93.585637 483.44839 85.593287 493.62456 78.505496 508.16491 C 73.319709 518.80335 72.474732 524.49105 75.411746 528.9735 C 78.768391 534.09639 78.942307 544.88484 75.829715 554.88561 C 74.13638 560.32631 73.358228 566.08014 73.610965 571.29772 C 73.989423 579.11069 74.137327 579.3996 78.964481 581.75866 C 82.750866 583.60909 87.890662 584.2944 100.62464 584.64342 C 109.80717 584.8951 117.61022 584.62995 117.96643 584.05358 C 118.32265 583.47722 121.90682 581.39365 125.93128 579.42467 C 134.43913 575.26217 143.9029 565.11727 150.33362 553.26451 C 152.71696 548.87169 154.66761 544.68402 154.66761 543.95787 C 154.66761 543.23173 155.80354 540.0939 157.193 536.98522 C 160.35245 529.91651 164.60379 518.38396 166.72229 511.13366 C 168.38251 505.45177 170.93877 504.00084 179.29261 504.00084 C 180.92061 504.00084 183.11952 502.95019 184.17932 501.66686 C 185.89281 499.59196 192.05022 486.49468 194.67932 479.33287 C 196.36221 474.74865 208.03918 444.03647 214.19495 428.00084 C 217.43235 419.56752 221.29519 409.36621 222.77893 405.33287 C 224.26267 401.29955 226.69918 394.99954 228.19495 391.33287 C 229.69071 387.66622 232.10957 381.36621 233.56995 377.33287 C 241.95513 354.17439 244.59152 355.37882 246.6969 383.33287 C 247.83916 398.49909 247.14186 463.48529 245.81409 465.63366 C 245.40124 466.30165 244.84753 471.51465 244.58362 477.21764 C 244.31971 482.92063 243.51405 490.22949 242.79261 493.45983 C 242.07116 496.69016 241.12059 504.43352 240.68128 510.66686 C 240.24198 516.90018 239.60548 523.31726 239.26721 524.92662 C 238.92895 526.53598 238.32168 531.03599 237.91761 534.92662 C 237.51353 538.81725 235.98092 550.10085 234.51136 560.00084 C 227.82589 605.03878 227.83993 606.05779 235.21253 610.02819 C 240.96409 613.12561 241.33487 614.58147 239.11292 625.33287 C 236.86456 636.212 236.5448 686.51497 238.61682 703.33287 C 240.09056 715.29468 243.87402 738.94961 247.14807 756.66686 C 252.7792 787.13922 256.06966 805.78003 257.26526 814.00084 C 258.01183 819.13418 259.24999 827.38423 260.01721 832.33483 C 261.50473 841.93308 261.93689 880.06493 260.62854 886.27819 C 256.95689 903.71468 251.21587 914.28154 239.77112 924.66686 C 228.1142 935.2447 204.63782 947.93568 190.30237 951.40905 C 180.27122 953.83952 179.27378 967.30812 187.68909 986.68639 C 192.00008 996.61348 192.20549 996.68122 217.20471 996.55162 C 242.91364 996.41834 250.03853 995.11491 278.70667 985.29967 C 289.36235 981.65143 298.81236 978.66686 299.70667 978.66686 C 303.12664 978.66686 301.05745 984.04499 293.82386 993.95006 C 285.25252 1005.687 283.48979 1012.5675 287.21253 1019.7665 C 289.99472 1025.1467 294.15774 1027.8287 304.42542 1030.8583 C 312.86319 1033.348 322.22447 1033.2797 332.02112 1030.6551 C 340.88607 1028.2801 348.89703 1021.8643 357.29846 1010.4149 C 375.7327 985.29277 390.13291 964.8381 392.22425 960.80162 C 393.44766 958.44035 395.3983 955.71935 396.55823 954.7567 C 397.71815 953.79405 398.66947 952.03033 398.67346 950.83678 C 398.67732 949.64324 402.3117 945.4249 406.74964 941.46373 C 411.18757 937.50257 415.9202 932.10216 417.26721 929.46178 C 421.09944 921.94999 421.81038 909.3858 419.42737 891.26451 L 417.31409 875.1942 L 421.24378 856.59655 C 423.40495 846.36795 426.14624 833.80019 427.33557 828.66686 C 435.7895 792.17871 436.33942 785.07281 435.31995 725.50475 C 434.24547 662.72284 435.41995 619.43795 438.27503 616.58287 C 439.32867 615.52924 442.4208 614.66686 445.14612 614.66686 C 448.64709 614.66686 451.44418 613.54542 454.67932 610.84459 C 458.78809 607.41443 459.2184 606.42067 458.86878 601.17662 C 458.65449 597.96241 457.61717 591.43352 456.56409 586.66686 C 455.51101 581.9002 452.25848 565.70017 449.33557 550.66686 C 444.40537 525.30937 436.0824 485.10972 433.18714 472.66686 C 429.56546 457.1022 429.11523 448.6072 431.30628 437.23522 C 433.81975 424.18978 439.57223 389.91736 441.36096 377.33287 C 442.03849 372.56622 443.50509 363.56621 444.61878 357.33287 C 445.73247 351.09955 446.97599 344.0502 447.38245 341.66686 C 447.94175 338.38734 448.80124 337.33287 450.92151 337.33287 C 453.83249 337.33287 466.2469 344.94793 469.26526 348.58483 C 470.21588 349.73026 471.51479 350.66686 472.15198 350.66686 C 473.24294 350.66686 485.22766 359.33917 486.66761 361.17077 C 488.77123 363.84657 508.44998 376.96375 514.66761 379.83483 C 524.70293 384.46878 539.39525 384.6691 547.66565 380.28405 C 552.62921 377.65232 574.19705 361.18536 575.99964 358.65123 C 576.56027 357.86309 589.14704 347.24545 595.99964 341.78014 C 606.7484 333.20746 606.66761 333.32301 606.66761 326.8153 C 606.66761 323.36049 607.38722 319.81248 608.26721 318.93248 C 610.68151 316.51819 617.26886 316.94751 618.28089 319.58483 C 618.75615 320.82333 618.39558 328.47334 617.48011 336.58483 C 616.56464 344.69631 615.28488 356.13418 614.6344 362.00084 C 613.98392 367.86751 612.47834 380.46752 611.2887 390.00084 C 610.09905 399.53416 608.95142 408.83353 608.73987 410.66686 C 608.52832 412.50019 607.98833 416.70085 607.5387 420.00084 C 607.08906 423.30084 606.37671 428.95737 605.95667 432.57311 C 605.53663 436.18885 604.90258 439.61732 604.54846 440.1903 C 604.19435 440.76328 603.35858 447.70481 602.69104 455.61608 C 602.0235 463.52736 600.26035 478.40021 598.77112 488.66686 C 597.28188 498.93352 595.74601 509.73352 595.35901 512.66686 C 594.19728 521.47257 588.10906 570.83375 587.30042 578.00084 C 586.58859 584.30997 585.2252 594.26346 580.6344 626.66686 C 579.54349 634.36685 577.43634 651.16753 575.95276 664.00084 C 574.46918 676.83417 572.67835 690.33419 571.97229 694.00084 C 571.26624 697.66751 570.10699 705.46621 569.39612 711.33287 C 568.68524 717.19954 567.44004 726.50085 566.6305 732.00084 C 565.82097 737.50084 564.3608 747.99955 563.38636 755.33287 C 561.77027 767.49491 557.50099 796.77674 548.70471 856.00084 C 546.90756 868.10083 545.13509 880.70085 544.76721 884.00084 C 544.39933 887.30084 543.55491 893.60085 542.89026 898.00084 C 542.22562 902.40084 540.37366 915.57452 538.77503 927.27623 C 537.1764 938.97794 535.2463 949.30149 534.48596 950.21764 C 533.72563 951.13379 533.49817 952.52183 533.98011 953.30162 C 534.46205 954.08141 534.25152 956.65725 533.51136 959.02623 C 532.7712 961.39523 531.76449 969.66236 531.27503 977.39733 C 530.40174 991.19799 530.44932 991.53802 533.8512 995.58092 C 538.17049 1000.7141 544.9712 1002.2779 550.51136 999.41295 C 553.55622 997.83839 555.04212 995.52044 557.16761 989.02623 C 559.70698 981.26742 562.25665 967.37733 561.58753 964.94616 C 561.42798 964.36645 561.92687 962.71506 562.6969 961.27623 C 563.46694 959.83741 564.14 955.81238 564.193 952.33092 C 564.246 948.84945 566.05056 934.30083 568.20276 920.00084 C 570.35495 905.70086 572.98445 887.70084 574.04651 880.00084 C 576.81231 859.94873 579.45339 841.87609 582.51917 822.00084 C 586.28278 797.60161 588.98801 779.02343 591.25745 762.00084 C 592.3329 753.93418 594.1694 740.43416 595.33753 732.00084 C 597.27511 718.01257 600.09834 696.60014 603.95276 666.66686 C 604.7554 660.43352 605.99489 652.77451 606.70667 649.64733 C 607.41845 646.52014 608.01494 641.72079 608.03284 638.98131 C 608.05077 636.24184 608.61667 631.60019 609.29065 628.66686 C 609.96463 625.73352 611.12235 617.63352 611.86292 610.66686 C 613.03346 599.65544 614.3197 589.11634 616.74768 570.66686 C 623.25474 521.22197 626.59172 494.72116 629.33948 470.66686 C 630.96889 456.40275 633.84454 432.95194 636.56409 411.73327 C 637.72015 402.71332 640.48699 378.83351 642.71253 358.66686 C 648.44311 306.7392 648.82267 304.64119 653.01331 301.89537 C 668.939 291.46046 679.01084 263.13135 674.63636 241.07701 C 673.57333 235.71769 672.69538 225.3659 672.68518 218.07311 L 672.66761 204.81334 L 666.66761 203.3485 C 662.07066 202.22588 660.56705 201.19863 660.24182 198.95397 C 660.00835 197.34261 660.78316 183.0662 661.96253 167.22936 C 664.05305 139.15747 663.87689 133.70025 660.81995 131.68639 C 658.12776 129.91282 646.48143 130.6262 642.8219 132.78795 C 639.32475 134.85377 639.15608 135.54789 636.27893 159.78795 C 634.65475 173.47176 632.99067 188.5612 632.57971 193.32116 C 631.70085 203.50078 630.1722 205.57143 620.03284 210.32897 C 610.97301 214.57997 598.23729 227.47093 590.58753 240.1317 C 585.87596 247.92961 583.39751 250.3745 573.61487 256.88366 C 567.31477 261.07559 561.16735 265.49914 559.95276 266.71373 C 552.63631 274.03019 537.74972 281.97906 526.40393 284.62584 C 516.37562 286.96529 515.72894 286.66253 502.56018 273.46178 C 473.76887 244.60055 458.02952 233.23154 433.99964 223.93444 C 431.13837 222.82743 417.26696 218.74112 405.33362 215.49108 C 401.3003 214.39261 395.29963 213.08865 391.99964 212.59264 C 382.64375 211.18641 381.33362 210.05803 381.33362 203.42076 L 381.33362 197.60436 L 390.99964 196.65319 C 396.3163 196.13066 401.41696 195.09606 402.33362 194.35436 C 405.89455 191.47315 402.92881 177.92032 396.51526 167.76061 L 393.30042 162.66686 L 399.65003 162.63951 C 406.90585 162.60899 429.76833 157.07226 432.70667 154.63366 C 437.63434 150.54405 433.39783 141.62893 419.4137 126.66686 C 413.43872 120.27403 405.57344 108.37169 398.74182 95.379749 C 396.44139 91.004912 394.11981 87.103605 393.58167 86.711781 C 393.04353 86.319956 390.5769 82.099537 388.09925 77.332874 C 378.82704 59.494476 372.78802 48.435189 368.1305 40.756703 C 363.50698 33.134285 362.94675 32.704858 352.66761 28.93639 C 346.03387 26.504378 338.68322 24.86266 333.2262 24.594593 C 328.40019 24.357524 322.84511 23.761017 320.88245 23.268421 C 319.75934 22.98654 318.59006 22.942971 317.46643 23.121937 z M 330.54261 649.33287 C 332.02915 649.33287 334.83743 655.97687 333.95471 657.40514 C 333.54482 658.06837 333.84739 659.8027 334.62659 661.25866 C 335.4058 662.71461 336.27035 666.17811 336.54651 668.95397 C 337.56766 679.21811 344.22544 714.10528 345.75354 717.19811 C 346.83034 719.37753 347.33362 729.99361 347.33362 750.53209 C 347.33362 782.40122 345.65893 855.63457 344.64807 868.00084 C 343.68546 879.77708 342.8452 890.53266 341.93714 902.66686 C 340.8076 917.76077 339.1324 923.9293 334.96839 928.33287 C 330.75918 932.78425 328.66654 932.94363 326.14026 929.00084 C 318.71927 917.41885 318.95367 897.1391 327.40784 819.33287 C 328.52338 809.06621 329.39369 799.1662 329.34339 797.33287 C 329.29349 795.49954 329.27337 788.29954 329.29846 781.33287 C 329.33354 771.58456 328.40797 764.88612 325.28284 752.25475 C 323.04945 743.22772 321.15506 733.02641 321.07386 729.58678 C 320.91937 723.04507 326.27024 663.11622 327.52503 657.33287 C 328.90996 650.94974 329.5196 649.33287 330.54261 649.33287 z " />
    <path
       id="path2"
       style="fill:#abc837"
       d="M 353.96643 592.00866 C 345.27334 591.93235 337.73498 592.17937 332.85315 592.8485 C 326.90173 593.66424 326.66761 593.86479 326.66761 598.13756 C 326.66761 604.72783 347.51356 699.62891 350.97229 708.78405 C 353.85303 716.40924 353.92898 717.84138 353.30823 752.66686 C 352.3235 807.91304 352.54519 884.3724 353.69886 887.19616 C 354.63912 889.49755 355.77831 889.65148 366.36682 888.92467 C 372.7653 888.48546 384.0003 886.56243 391.33362 884.65123 C 398.66695 882.74004 405.41696 880.19796 406.33362 879.00084 C 407.25029 877.80371 408.00496 874.68881 408.01136 872.07897 C 408.02236 867.6097 411.04209 852.08172 419.43518 813.33287 L 423.04456 796.66686 L 423.30042 706.66686 C 423.44084 657.16691 424.0355 612.97944 424.62073 608.4735 C 425.60275 600.91243 425.46399 600.16507 422.84339 598.76256 C 416.51747 595.37703 380.04571 592.23756 353.96643 592.00866 z M 309.06409 594.93053 C 300.03911 594.34476 260.32216 600.97274 254.64221 604.01256 C 249.65068 606.68395 246.36077 653.34169 249.26526 680.27428 C 251.42413 700.29284 257.96003 746.38716 261.23206 764.66686 C 264.90274 785.17378 270.49698 824.90903 271.83753 840.00084 C 273.14006 854.66464 272.86342 885.78278 271.34925 894.97741 C 270.38571 900.82835 270.54122 901.3866 273.48792 902.64733 C 278.54079 904.80918 298.89799 903.42155 304.86292 900.50866 L 309.99964 898.00084 L 310.89221 882.66686 C 311.38276 874.23353 313.05027 860.89873 314.59925 853.03405 C 318.36781 833.8998 322.68095 799.90591 322.59534 790.00084 C 322.52674 782.06522 320.98606 771.86355 316.7594 751.33287 C 312.67607 731.49837 314.06967 696.176 320.17737 664.66686 C 320.88811 661.00019 322.28214 651.56356 323.27503 643.69616 L 325.07971 629.39147 L 320.17151 612.36217 L 315.26331 595.33287 L 309.06409 594.93053 z " />
    <path
       style="fill:#5fd38d"
       d="m 262.13799,593.47319 c 18.15027,-4.41706 38.38339,-7.38224 65.19534,-9.55442 38.79344,-3.14286 94.20709,2.55828 111.42927,11.46422 5.44156,2.81394 7.90407,2.47236 7.90407,-1.09639 0,-1.67573 -2.13675,-13.22573 -4.74832,-25.66667 -2.61157,-12.44094 -5.27511,-25.31989 -5.91898,-28.61989 -1.67852,-8.60292 -4.78932,-21.97938 -7.77391,-33.4279 -1.42027,-5.44799 -2.63797,-10.80543 -2.70599,-11.90543 -0.068,-1.1 -2.27742,-10.10001 -4.90978,-20.00001 l -4.7861,-18 2.01205,-12 c 1.10663,-6.6 4.09311,-24.3 6.63661,-39.33334 2.54351,-15.03333 6.19877,-38.43333 8.12281,-52 5.27583,-37.20057 5.14639,-36.58036 7.73853,-37.07956 2.12163,-0.40859 26.212,17.15321 50.99974,37.17865 14.1422,11.42515 25.55486,18.33981 31.77125,19.24944 7.71474,1.12889 21.07744,-3.25573 30.97017,-10.16205 4.35889,-3.04302 8.22525,-5.9192 8.59192,-6.39151 1.53792,-1.98102 18.57935,-14.81345 25.66666,-19.32735 C 592.55,334.11538 596,331.24356 596,330.41915 c 0,-0.82442 -2.05951,-7.86965 -4.57669,-15.65606 -4.3957,-13.59724 -7.04541,-28.62673 -7.75578,-43.9916 -0.18381,-3.97569 -0.99629,-7.44639 -1.8055,-7.71266 -0.80922,-0.26627 -4.40922,2.15365 -8,5.3776 -11.222,10.07555 -26.10896,18.89859 -38.72222,22.94945 -13.34088,4.28454 -19.10407,7.52476 -25.7347,14.46876 -2.52719,2.64663 -5.13239,4.81205 -5.78935,4.81205 -0.65695,0 -1.0676,-3.45 -0.91257,-7.66667 0.41302,-11.23303 0.43982,-11.15093 -5.76654,-17.66666 -31.02774,-32.57438 -66.05567,-53.49495 -101.62753,-60.69744 -8.97096,-1.81641 -17.21154,-3.30257 -18.31241,-3.30257 -1.10086,0 -6.60319,4.71471 -12.22739,10.47713 -13.63366,13.96873 -40.17862,32.18954 -46.89527,32.18954 -4.57364,0 -55.19217,-26.07265 -57.32807,-29.52861 -2.89058,-4.67705 -22.70967,5.12182 -40.31025,19.93002 -17.06056,14.35387 -25.39601,31.75205 -46.75937,97.5986 -20.99725,64.71813 -26.26055,80.0132 -33.12514,96.26124 -3.31386,7.84368 -5.70283,15.10128 -5.30884,16.12801 0.39399,1.02673 5.20224,3.99712 10.685,6.60087 6.93113,3.29158 12.7048,7.41691 18.94827,13.53866 13.52418,13.26053 14.67067,12.71123 22.09627,-10.58658 3.02837,-9.50154 5.97014,-17.87553 6.53726,-18.60886 0.56711,-0.73333 1.46888,-2.83333 2.00392,-4.66667 2.70618,-9.27276 32.22494,-83.20678 37.2641,-93.33334 11.90237,-23.91869 12.54627,-24.87748 15.85459,-23.60796 5.01231,1.9234 8.82437,67.49706 6.3332,108.9413 -1.97597,32.87312 -7.38016,91.75049 -10.89209,118.66668 -4.79681,36.76379 -4.77729,36 -0.92009,36 1.82774,0 10.46108,-1.73709 19.18518,-3.86019 z"
       id="path3" />
    <path
       id="path4"
       style="display:inline;fill:#e3dbdb"
       d="M 284.66761 103.73327 L 277.49964 120.20006 L 270.33167 136.66686 L 271.03479 152.00084 C 272.11663 175.63027 279.60214 198.09923 289.54846 207.57506 C 295.27218 213.02804 305.13876 218.63065 309.05628 218.65123 C 310.7372 218.66023 316.73788 217.71703 322.39026 216.55553 C 335.42762 213.87651 340.17768 210.91059 347.62854 200.79772 C 355.36781 190.29343 359.33104 182.37994 361.76721 172.57116 C 365.45368 157.72848 365.6142 151.54818 362.61878 139.71178 C 357.24777 118.48841 357.18991 118.38225 349.15198 114.41491 C 336.23133 108.03752 322.37634 105.03876 302.66761 104.35631 L 284.66761 103.73327 z M 339.18714 122.89928 C 340.3388 122.88598 341.56566 122.90427 342.86487 122.95397 C 350.63624 123.24912 353.72908 123.94493 355.86487 125.8778 C 361.37481 130.86421 358.67672 133.63549 351.99964 129.8485 C 349.45166 128.40339 345.87787 128.16326 336.82776 128.83092 C 327.04612 129.55254 325.09398 129.38262 325.59925 127.85241 C 326.6652 124.62414 331.12547 122.99229 339.18714 122.89928 z M 290.96057 123.65319 C 298.05358 123.65719 306.41976 124.41803 309.68909 125.78405 C 316.55578 128.65312 318.29774 134.95999 316.05823 148.84264 C 315.14452 154.50667 313.58494 161.83704 312.59339 165.1317 C 311.60183 168.42639 311.0984 171.61927 311.47425 172.22741 C 311.8501 172.83556 314.67234 173.35252 317.74573 173.37584 C 322.94864 173.41534 323.15556 173.55314 320.74573 175.37584 C 317.31127 177.97354 308.79501 177.89697 306.59729 175.24889 C 305.17155 173.53097 305.24251 172.06586 307.00159 166.91491 C 311.1159 154.8673 311.36091 137.92964 307.49768 132.67858 C 306.5084 131.3339 301.92376 130.17056 293.99964 129.2528 C 279.29348 127.54956 277.71229 127.08704 279.71643 125.08287 C 280.69661 124.10272 285.44381 123.64973 290.96057 123.65319 z M 342.15589 130.69616 C 345.4876 130.66156 358.66761 135.93248 358.66761 137.29967 C 358.66761 140.5885 339.61483 142.32728 330.95276 139.82897 C 328.39485 139.09123 326.93776 137.97355 327.45081 137.14342 C 328.68299 135.14971 338.76099 130.73138 342.15589 130.69616 z M 291.65393 131.02037 C 292.98513 131.04247 294.27738 131.32603 295.943 131.82506 C 298.76546 132.6707 302.467 134.49137 304.16956 135.86998 L 307.26526 138.37584 L 301.96643 139.84655 C 295.6386 141.60328 286.54393 141.55569 279.66761 139.72936 C 276.91761 138.99896 274.66761 137.93519 274.66761 137.36412 C 274.66761 136.79305 278.29834 134.96582 282.73792 133.30553 C 287.10439 131.67257 289.43529 130.98348 291.65393 131.02037 z M 308.5387 185.45983 C 316.30564 185.53993 324.69774 187.81777 328.06604 191.40319 C 329.74642 193.19187 330.86863 194.82607 330.56018 195.03405 C 330.25174 195.24204 326.10029 194.70973 321.33362 193.85045 C 316.56699 192.99118 308.61758 192.22257 303.66761 192.14342 C 293.62134 191.98277 291.32346 189.42669 298.86487 186.79772 C 301.60632 185.84205 305.00826 185.42341 308.5387 185.45983 z M 365.31995 195.55944 C 364.10135 195.55373 362.60892 196.03046 361.15393 197.02623 C 359.41975 198.21308 353.787 202.8175 348.63831 207.25866 C 343.4896 211.6998 337.79025 216.36699 335.97229 217.62975 C 332.79939 219.83365 332.88007 219.84129 337.99964 217.8153 C 340.93296 216.65447 345.13362 214.7919 347.33362 213.67662 C 353.98156 210.30646 367.99964 199.59491 367.99964 197.88561 C 367.99964 196.37043 366.88672 195.56677 365.31995 195.55944 z M 275.43909 202.85436 C 275.39045 202.85556 275.35314 202.86999 275.32776 202.89537 C 274.92168 203.30144 277.30633 207.24604 280.62659 211.66295 C 286.51319 219.49387 291.89449 223.21116 300.66761 225.50475 C 306.26635 226.96846 318.44675 226.00601 323.99964 223.661 C 328.56285 221.73393 328.38308 221.69035 315.9137 221.68444 C 300.18892 221.67744 293.12265 218.95292 283.03284 209.01647 C 279.44047 205.47871 276.16866 202.83628 275.43909 202.85436 z M 652.32386 208.19616 C 645.74772 208.18704 640.62588 209.53603 633.39612 212.80944 C 607.8663 224.36857 590.66761 244.98316 590.66761 264.02428 C 590.66761 270.62606 595.08012 294.74051 597.40979 300.86803 C 598.70326 304.27011 599.00235 304.35449 607.05628 303.60241 C 611.62724 303.17557 616.39643 302.4314 617.65589 301.94811 C 620.76232 300.75605 624.77222 293.81758 626.10315 287.33287 C 626.70518 284.39954 627.35207 275.10018 627.54065 266.66686 C 627.72924 258.23353 628.25965 247.32746 628.71839 242.43248 C 629.50194 234.07183 629.80894 233.4148 633.77698 231.56139 C 640.21189 228.55575 648.06046 226.68291 654.2594 226.67467 C 661.81638 226.66467 666.58015 222.5306 667.57386 215.12194 L 668.318 209.57897 L 659.51526 208.63756 C 656.86812 208.35408 654.5159 208.1992 652.32386 208.19616 z M 655.64612 229.84264 C 653.88885 229.8455 651.94512 229.97679 649.81409 230.23326 C 641.3042 231.25747 640.63809 231.5728 640.26526 234.78014 C 639.75787 239.14504 642.65918 241.58525 649.78284 242.78795 C 659.63641 244.45155 667.24937 243.6515 667.77307 240.89537 C 669.1761 233.51147 665.13539 229.8272 655.64612 229.84264 z M 642.77307 245.70787 C 635.72282 245.62365 634.27543 247.43756 634.90393 252.91881 C 635.56167 258.65515 642.15206 261.32837 655.64221 261.33092 C 666.12397 261.33292 666.65223 261.18892 667.42151 258.12389 C 668.4294 254.10812 666.07735 249.54904 662.25159 248.10045 C 660.64618 247.49257 654.50072 246.56844 648.59339 246.04772 C 646.32638 245.84789 644.40006 245.72731 642.77307 245.70787 z M 654.35901 266.66686 C 647.32903 266.66686 645.76959 268.24361 647.193 273.91491 C 647.96108 276.97516 648.61246 277.28789 656.70276 278.46764 C 657.45625 278.57752 659.40691 277.73228 661.03675 276.59069 C 667.45283 272.09669 663.79928 266.66686 654.35901 266.66686 z M 652.04651 284.00084 C 648.94402 284.00084 647.28164 286.87355 648.51917 290.0985 C 649.81211 293.46783 653.94822 291.75565 654.42151 287.65514 C 654.76284 284.69788 654.30946 284.00084 652.04651 284.00084 z M 126.96839 474.66686 C 124.23301 474.66686 109.82015 484.2751 96.441043 495.01842 C 87.246497 502.40157 79.545526 514.64004 80.880496 519.74498 C 82.266356 525.04452 88.312668 523.56086 95.784793 516.08873 C 102.56227 509.31125 103.68979 508.88024 118.37659 507.46178 C 126.45288 506.68176 126.76247 508.85946 118.75745 510.13952 C 111.78073 511.25513 103.60012 516.07851 102.72425 519.59264 C 102.0398 522.33878 93.866231 529.20562 89.183231 530.96764 C 86.425383 532.0053 78.298928 563.99532 78.905887 571.42467 C 79.279028 575.99202 79.757049 576.66686 82.622684 576.66686 C 85.293938 576.66686 86.338639 575.54046 88.18909 570.66686 C 92.659831 558.8921 96.001441 546.53347 96.036746 541.63951 C 96.081326 535.45926 102.18076 527.30061 105.28479 529.27037 C 106.9737 530.34212 106.90727 531.19263 104.79846 535.58873 C 97.715538 550.35406 91.518862 575.07476 94.222293 577.77819 C 96.145305 579.7012 99.940563 578.49552 102.59729 575.11803 C 105.84591 570.98808 112.75832 549.16538 114.03675 539.00084 C 114.87147 532.36415 115.11884 532.00084 118.79261 532.00084 C 123.41662 532.00084 123.39738 531.87499 119.87268 539.61217 C 116.71746 546.53832 109.37243 570.19379 109.34925 573.5028 C 109.34125 574.69634 110.22948 576.41715 111.32581 577.32701 C 112.92949 578.65794 113.9447 578.57247 116.51917 576.88561 C 121.64704 573.5257 130.33252 548.11653 130.64026 535.57311 C 130.65496 534.97211 132.01761 534.67275 133.66761 534.90709 C 136.23014 535.27103 136.60164 536.01467 136.22229 540.00084 C 135.97803 542.56751 134.02739 549.06236 131.88831 554.43444 C 127.98696 564.23231 126.93418 570.66686 129.23011 570.66686 C 131.9514 570.66686 140.6538 558.64491 146.12268 547.33287 C 151.98089 535.21556 159.30092 512.14406 160.83362 500.96178 C 161.63975 495.08046 161.47237 494.70243 155.5094 488.90709 C 149.46744 483.03498 132.69562 474.66686 126.96839 474.66686 z " />
    <path
       style="fill:#0000ff"
       d="M 329.03329,248.70192 C 339.54332,243.27334 344,239.72519 344,236.7863 c 0,-1.16579 0.92727,-2.11962 2.06061,-2.11962 1.13333,0 3.41228,-1.35168 5.06434,-3.00373 1.65206,-1.65206 4.62478,-4.06589 6.60606,-5.36407 2.21696,-1.45261 3.60232,-3.56128 3.60232,-5.48312 0,-1.71753 1.26841,-4.7353 2.81868,-6.70615 4.17861,-5.31225 2.45406,-5.3475 -4.9246,-0.10067 -7.66632,5.45137 -32.17654,16.0316 -42.03865,18.14664 -7.58467,1.62662 -14.66369,0.91116 -24.17429,-2.44326 -6.63452,-2.34001 -11.04184,-5.81506 -17.68125,-13.94118 l -3.99989,-4.89554 0.0259,4.89554 c 0.0142,2.69255 1.08248,6.69554 2.37388,8.89554 1.29141,2.2 3.4218,5.78777 4.73422,7.97282 3.21831,5.35818 31.58576,19.98552 39.89931,20.5736 0.93497,0.0661 5.73497,-1.96389 10.66667,-4.51118 z"
       id="path5" />
    <path
       id="path6"
       style="fill:#00ffff"
       d="M 344.24573 133.8153 C 342.15705 133.7985 339.42562 136.65794 340.58753 138.53795 C 341.83518 140.55669 343.36918 140.36769 345.3805 137.9442 C 346.67928 136.37926 346.71659 135.51663 345.53479 134.33483 C 345.17709 133.97712 344.72773 133.81917 344.24573 133.8153 z M 290.52307 134.66686 C 287.63218 134.66686 287.2819 136.08193 289.59925 138.39928 C 291.37569 140.17573 292.49228 140.39491 293.68518 139.20201 C 295.17759 137.70961 293.05573 134.66686 290.52307 134.66686 z " />
    <path
       style="fill:#008000"
       d="m 417.34146,150.66449 c 2.77806,-0.74805 5.39403,-2.25398 5.81327,-3.3465 0.78781,-2.053 -5.14999,-9.84359 -11.15473,-14.63536 -11.90676,-9.50157 -14.51817,-12.89431 -18.02124,-23.41308 -2.51358,-7.5476 -5.12056,-12.336248 -9.2008,-16.900601 -3.13139,-3.502918 -6.06392,-7.868942 -6.51673,-9.702276 -0.45281,-1.833333 -3.39683,-7.135742 -6.54226,-11.78313 -3.14543,-4.647389 -6.6231,-10.047389 -7.72815,-12.000001 -9.98807,-17.648863 -13.73641,-20.092015 -32.42512,-21.134576 -10.80524,-0.602777 -14.61628,-0.315085 -18.72853,1.4138 -2.83956,1.193814 -6.35256,2.170571 -7.80667,2.170571 -3.04027,0 -24.59238,20.504457 -25.8882,24.629773 -1.05618,3.362413 -31.07342,34.0369 -33.30761,34.0369 -0.89655,0 -3.47612,1.55333 -5.73239,3.45186 -7.45946,6.27672 -4.35009,15.38028 5.91068,17.30521 2.65562,0.4982 5.87989,0.38166 7.16505,-0.25896 1.28517,-0.64063 8.89586,-8.16932 16.91265,-16.73043 l 14.57599,-15.56566 8,-0.828338 c 4.4,-0.455586 10.71081,-1.427495 14.02402,-2.159797 8.85174,-1.956456 33.74222,1.523825 42.55491,5.950189 10.11284,5.079393 21.88259,19.389836 31.39263,38.169256 5.32259,10.5105 13.84265,20.5533 19.36177,22.8222 2.47508,1.01751 10.62907,0.31641 17.34146,-1.49105 z"
       id="path7" />
    <path
       id="path8"
       style="fill:#ffccaa"
       d="M 648.52112 135.33287 C 643.64258 135.33287 643.30854 135.59201 642.91565 139.66686 C 642.49905 143.98762 642.51607 144.00084 648.62464 144.00084 C 653.06649 144.00084 654.98065 143.40069 655.58753 141.8192 C 657.0447 138.02188 654.11558 135.33287 648.52112 135.33287 z M 648.09729 146.54381 C 645.34443 146.58843 642.62651 147.42029 642.1637 149.00084 C 641.78792 150.28418 640.54412 160.33289 639.40003 171.33287 C 638.25593 182.33286 637.04442 193.80551 636.70862 196.82701 C 636.37282 199.84853 636.5062 202.73006 637.0055 203.22936 C 637.85572 204.07958 648.03411 202.9465 649.19886 201.87194 C 650.28065 200.87389 655.02919 150.86559 654.23792 148.80358 C 653.63801 147.24025 650.85016 146.49919 648.09729 146.54381 z M 635.1344 266.8817 C 634.72575 266.95342 634.30057 267.14681 633.81604 267.44225 C 631.33416 268.95557 628.42194 289.383 619.38831 368.66686 C 615.95386 398.80936 599.15747 534.24409 593.42737 578.00084 C 591.98688 589.00083 587.75989 621.70022 584.03284 650.66686 C 580.3058 679.6335 575.79012 714.13289 573.99768 727.33287 C 559.92479 830.96913 545.55152 931.45836 544.05628 936.66686 C 543.42471 938.86686 542.55363 945.16686 542.12073 950.66686 C 541.68782 956.16685 540.19962 966.00666 538.81409 972.53405 C 537.42856 979.06143 536.48311 985.36144 536.71253 986.53405 C 536.94195 987.70667 537.17595 989.43554 537.23206 990.37584 C 537.35976 992.51599 542.43379 994.47727 545.65979 993.63366 C 546.9937 993.28483 548.6033 992.0246 549.23792 990.83287 C 549.87253 989.64115 550.80367 984.4662 551.30628 979.33287 C 551.8089 974.19955 552.80812 966.09954 553.52698 961.33287 C 557.20065 936.97329 571.19631 840.27519 574.07971 819.33287 C 575.89713 806.13289 578.24009 789.63351 579.28479 782.66686 C 581.19557 769.92477 587.66222 723.17006 591.45667 694.66686 C 592.57935 686.23354 594.37874 673.33418 595.45471 666.00084 C 596.53069 658.66752 598.00128 647.56621 598.72229 641.33287 C 599.4433 635.09955 601.50195 618.89953 603.29846 605.33287 C 605.09498 591.76622 608.70372 564.16749 611.318 544.00084 C 613.93226 523.83419 616.98041 500.43416 618.09143 492.00084 C 619.20245 483.56751 620.38429 474.2662 620.71839 471.33287 C 621.05248 468.39955 624.01646 443.80016 627.30432 416.66686 C 645.04074 270.29603 644.54147 276.3348 639.41565 270.00084 C 637.42542 267.54152 636.36035 266.66654 635.1344 266.8817 z " />
  </g>
</svg>
